<svg xmlns="http://www.w3.org/2000/svg" viewBox="0 0 900 1125" role="img" aria-label="Daily Activities 3">
  <defs>
    <linearGradient id="field26" x1="0" y1="0" x2="0" y2="1">
      <stop offset="0" stop-color="#FDFDFB"/><stop offset="1" stop-color="#F2EEE5"/>
    </linearGradient>
    <radialGradient id="glow26" cx="0.24" cy="0.08" r="0.9">
      <stop offset="0" stop-color="#EAD9B0" stop-opacity="0.55"/>
      <stop offset="0.55" stop-color="#EAD9B0" stop-opacity="0"/>
    </radialGradient>
    <linearGradient id="shaft26" x1="0" y1="0" x2="0.35" y2="1">
      <stop offset="0" stop-color="#EAD9B0" stop-opacity="0.65"/>
      <stop offset="0.6" stop-color="#C29A55" stop-opacity="0.12"/>
      <stop offset="1" stop-color="#C29A55" stop-opacity="0"/>
    </linearGradient>
    <filter id="soft26" x="-40%" y="-40%" width="180%" height="180%">
      <feGaussianBlur stdDeviation="26"/>
    </filter>
    <filter id="grain26">
      <feTurbulence type="fractalNoise" baseFrequency="0.8" numOctaves="2" stitchTiles="stitch"/>
      <feColorMatrix type="saturate" values="0"/>
      <feComponentTransfer><feFuncA type="linear" slope="0.05"/></feComponentTransfer>
      <feComposite operator="over" in2="SourceGraphic"/>
    </filter>
  </defs>
  <rect width="900" height="1125" fill="url(#field26)"/>
  <rect width="900" height="1125" fill="url(#glow26)"/>
  <!-- light shaft entering from upper left -->
  <polygon points="108,-112.5 306,-112.5 558,1181.25 252.00000000000003,1181.25"
    fill="url(#shaft26)" filter="url(#soft26)"/>
  <!-- arch window with pooling light -->
  <g>
    <path d="M648 765 v-508.5 a76.5 76.5 0 0 1 153 0 v508.5 z"
      fill="rgba(234,217,176,0.35)" stroke="rgba(10,27,46,0.14)" stroke-width="2"/>
    <line x1="724.5" y1="195.3" x2="724.5" y2="765" stroke="rgba(10,27,46,0.14)" stroke-width="1.5"/>
    <ellipse cx="724.5" cy="832.5" rx="130.04999999999998" ry="50.625"
      fill="#EAD9B0" opacity="0.4" filter="url(#soft26)"/>
  </g>
  <!-- horizon hairline -->
  <line x1="54" y1="832.5" x2="846" y2="832.5" stroke="rgba(10,27,46,0.14)" stroke-width="1.5"/>
  <circle cx="72" cy="498" r="2.4" fill="#C29A55" opacity="0.20"/>
    <circle cx="363" cy="538" r="2.9" fill="#C29A55" opacity="0.48"/>
    <circle cx="421" cy="572" r="2.3" fill="#C29A55" opacity="0.25"/>
    <circle cx="110" cy="232" r="3.5" fill="#C29A55" opacity="0.40"/>
    <circle cx="293" cy="272" r="2.3" fill="#C29A55" opacity="0.32"/>
    <circle cx="347" cy="115" r="2.8" fill="#C29A55" opacity="0.41"/>
    <circle cx="349" cy="389" r="1.8" fill="#C29A55" opacity="0.53"/>
    <circle cx="324" cy="456" r="3.4" fill="#C29A55" opacity="0.45"/>
    <circle cx="156" cy="536" r="3.2" fill="#C29A55" opacity="0.38"/>
    <circle cx="136" cy="410" r="3.0" fill="#C29A55" opacity="0.49"/>
    <circle cx="363" cy="353" r="2.0" fill="#C29A55" opacity="0.33"/>
    <circle cx="433" cy="457" r="1.5" fill="#C29A55" opacity="0.57"/>
    <circle cx="317" cy="275" r="3.4" fill="#C29A55" opacity="0.47"/>
    <circle cx="217" cy="510" r="2.7" fill="#C29A55" opacity="0.51"/>
  <g transform="translate(808,36) scale(0.82)" opacity="0.75">
    <path d="M0 18 C0 6 10-2 19 4 c3 2 5 5 6 8 1-3 3-6 6-8 9-6 19 2 19 14 0 14-18 24-25 28 C18 42 0 32 0 18z" fill="none" stroke="#C29A55" stroke-width="3"/>
    <path d="M8 22 h10 l4-8 7 18 4-8 h11" stroke="#C29A55" stroke-width="3" fill="none" stroke-linecap="round" stroke-linejoin="round"/>
  </g>
  
  <rect width="900" height="1125" filter="url(#grain26)" opacity="0.35" fill="none"/>
</svg>