<svg xmlns="http://www.w3.org/2000/svg" viewBox="0 0 900 1125" role="img" aria-label="Daily Activities 1">
  <defs>
    <linearGradient id="field24" x1="0" y1="0" x2="0" y2="1">
      <stop offset="0" stop-color="#FDFDFB"/><stop offset="1" stop-color="#F2EEE5"/>
    </linearGradient>
    <radialGradient id="glow24" cx="0.24" cy="0.08" r="0.9">
      <stop offset="0" stop-color="#EAD9B0" stop-opacity="0.55"/>
      <stop offset="0.55" stop-color="#EAD9B0" stop-opacity="0"/>
    </radialGradient>
    <linearGradient id="shaft24" x1="0" y1="0" x2="0.35" y2="1">
      <stop offset="0" stop-color="#EAD9B0" stop-opacity="0.65"/>
      <stop offset="0.6" stop-color="#C29A55" stop-opacity="0.12"/>
      <stop offset="1" stop-color="#C29A55" stop-opacity="0"/>
    </linearGradient>
    <filter id="soft24" x="-40%" y="-40%" width="180%" height="180%">
      <feGaussianBlur stdDeviation="26"/>
    </filter>
    <filter id="grain24">
      <feTurbulence type="fractalNoise" baseFrequency="0.8" numOctaves="2" stitchTiles="stitch"/>
      <feColorMatrix type="saturate" values="0"/>
      <feComponentTransfer><feFuncA type="linear" slope="0.05"/></feComponentTransfer>
      <feComposite operator="over" in2="SourceGraphic"/>
    </filter>
  </defs>
  <rect width="900" height="1125" fill="url(#field24)"/>
  <rect width="900" height="1125" fill="url(#glow24)"/>
  <!-- light shaft entering from upper left -->
  <polygon points="108,-112.5 306,-112.5 558,1181.25 252.00000000000003,1181.25"
    fill="url(#shaft24)" filter="url(#soft24)"/>
  <!-- arch window with pooling light -->
  <g>
    <path d="M648 765 v-508.5 a76.5 76.5 0 0 1 153 0 v508.5 z"
      fill="rgba(234,217,176,0.35)" stroke="rgba(10,27,46,0.14)" stroke-width="2"/>
    <line x1="724.5" y1="195.3" x2="724.5" y2="765" stroke="rgba(10,27,46,0.14)" stroke-width="1.5"/>
    <ellipse cx="724.5" cy="832.5" rx="130.04999999999998" ry="50.625"
      fill="#EAD9B0" opacity="0.4" filter="url(#soft24)"/>
  </g>
  <!-- horizon hairline -->
  <line x1="54" y1="832.5" x2="846" y2="832.5" stroke="rgba(10,27,46,0.14)" stroke-width="1.5"/>
  <circle cx="72" cy="320" r="3.6" fill="#C29A55" opacity="0.23"/>
    <circle cx="334" cy="242" r="2.6" fill="#C29A55" opacity="0.34"/>
    <circle cx="260" cy="660" r="2.9" fill="#C29A55" opacity="0.24"/>
    <circle cx="262" cy="185" r="3.2" fill="#C29A55" opacity="0.37"/>
    <circle cx="139" cy="261" r="2.9" fill="#C29A55" opacity="0.26"/>
    <circle cx="422" cy="538" r="2.3" fill="#C29A55" opacity="0.46"/>
    <circle cx="488" cy="352" r="1.3" fill="#C29A55" opacity="0.41"/>
    <circle cx="400" cy="184" r="1.3" fill="#C29A55" opacity="0.24"/>
    <circle cx="369" cy="472" r="2.0" fill="#C29A55" opacity="0.51"/>
    <circle cx="467" cy="739" r="3.0" fill="#C29A55" opacity="0.20"/>
    <circle cx="141" cy="376" r="3.4" fill="#C29A55" opacity="0.52"/>
    <circle cx="297" cy="359" r="3.4" fill="#C29A55" opacity="0.26"/>
    <circle cx="522" cy="361" r="2.0" fill="#C29A55" opacity="0.49"/>
    <circle cx="453" cy="139" r="3.4" fill="#C29A55" opacity="0.38"/>
  <g transform="translate(808,36) scale(0.82)" opacity="0.75">
    <path d="M0 18 C0 6 10-2 19 4 c3 2 5 5 6 8 1-3 3-6 6-8 9-6 19 2 19 14 0 14-18 24-25 28 C18 42 0 32 0 18z" fill="none" stroke="#C29A55" stroke-width="3"/>
    <path d="M8 22 h10 l4-8 7 18 4-8 h11" stroke="#C29A55" stroke-width="3" fill="none" stroke-linecap="round" stroke-linejoin="round"/>
  </g>
  
  <rect width="900" height="1125" filter="url(#grain24)" opacity="0.35" fill="none"/>
</svg>