<svg xmlns="http://www.w3.org/2000/svg" viewBox="0 0 900 1125" role="img" aria-label="Facilities 2">
  <defs>
    <linearGradient id="field22" x1="0" y1="0" x2="0" y2="1">
      <stop offset="0" stop-color="#FDFDFB"/><stop offset="1" stop-color="#F2EEE5"/>
    </linearGradient>
    <radialGradient id="glow22" cx="0.24" cy="0.08" r="0.9">
      <stop offset="0" stop-color="#E4E4DE" stop-opacity="0.55"/>
      <stop offset="0.55" stop-color="#E4E4DE" stop-opacity="0"/>
    </radialGradient>
    <linearGradient id="shaft22" x1="0" y1="0" x2="0.35" y2="1">
      <stop offset="0" stop-color="#EAD9B0" stop-opacity="0.65"/>
      <stop offset="0.6" stop-color="#C29A55" stop-opacity="0.12"/>
      <stop offset="1" stop-color="#C29A55" stop-opacity="0"/>
    </linearGradient>
    <filter id="soft22" x="-40%" y="-40%" width="180%" height="180%">
      <feGaussianBlur stdDeviation="26"/>
    </filter>
    <filter id="grain22">
      <feTurbulence type="fractalNoise" baseFrequency="0.8" numOctaves="2" stitchTiles="stitch"/>
      <feColorMatrix type="saturate" values="0"/>
      <feComponentTransfer><feFuncA type="linear" slope="0.05"/></feComponentTransfer>
      <feComposite operator="over" in2="SourceGraphic"/>
    </filter>
  </defs>
  <rect width="900" height="1125" fill="url(#field22)"/>
  <rect width="900" height="1125" fill="url(#glow22)"/>
  <!-- light shaft entering from upper left -->
  <polygon points="108,-112.5 306,-112.5 558,1181.25 252.00000000000003,1181.25"
    fill="url(#shaft22)" filter="url(#soft22)"/>
  <!-- arch window with pooling light -->
  <g>
    <path d="M648 765 v-508.5 a76.5 76.5 0 0 1 153 0 v508.5 z"
      fill="rgba(234,217,176,0.35)" stroke="rgba(10,27,46,0.14)" stroke-width="2"/>
    <line x1="724.5" y1="195.3" x2="724.5" y2="765" stroke="rgba(10,27,46,0.14)" stroke-width="1.5"/>
    <ellipse cx="724.5" cy="832.5" rx="130.04999999999998" ry="50.625"
      fill="#EAD9B0" opacity="0.4" filter="url(#soft22)"/>
  </g>
  <!-- horizon hairline -->
  <line x1="54" y1="832.5" x2="846" y2="832.5" stroke="rgba(10,27,46,0.14)" stroke-width="1.5"/>
  <circle cx="72" cy="142" r="2.3" fill="#C29A55" opacity="0.27"/>
    <circle cx="304" cy="622" r="2.4" fill="#C29A55" opacity="0.20"/>
    <circle cx="98" cy="748" r="3.5" fill="#C29A55" opacity="0.22"/>
    <circle cx="414" cy="138" r="2.9" fill="#C29A55" opacity="0.35"/>
    <circle cx="435" cy="251" r="3.5" fill="#C29A55" opacity="0.21"/>
    <circle cx="496" cy="286" r="1.9" fill="#C29A55" opacity="0.52"/>
    <circle cx="176" cy="316" r="3.4" fill="#C29A55" opacity="0.29"/>
    <circle cx="475" cy="587" r="1.8" fill="#C29A55" opacity="0.43"/>
    <circle cx="133" cy="408" r="3.3" fill="#C29A55" opacity="0.25"/>
    <circle cx="347" cy="393" r="3.1" fill="#C29A55" opacity="0.31"/>
    <circle cx="368" cy="400" r="2.2" fill="#C29A55" opacity="0.32"/>
    <circle cx="161" cy="261" r="2.7" fill="#C29A55" opacity="0.35"/>
    <circle cx="276" cy="447" r="3.2" fill="#C29A55" opacity="0.50"/>
    <circle cx="239" cy="442" r="1.6" fill="#C29A55" opacity="0.24"/>
  <g transform="translate(808,36) scale(0.82)" opacity="0.75">
    <path d="M0 18 C0 6 10-2 19 4 c3 2 5 5 6 8 1-3 3-6 6-8 9-6 19 2 19 14 0 14-18 24-25 28 C18 42 0 32 0 18z" fill="none" stroke="#405872" stroke-width="3"/>
    <path d="M8 22 h10 l4-8 7 18 4-8 h11" stroke="#405872" stroke-width="3" fill="none" stroke-linecap="round" stroke-linejoin="round"/>
  </g>
  
  <rect width="900" height="1125" filter="url(#grain22)" opacity="0.35" fill="none"/>
</svg>