<svg xmlns="http://www.w3.org/2000/svg" viewBox="0 0 900 700">
  <defs>
    <linearGradient id="g" x1="0" y1="0" x2="1" y2="1">
      <stop offset="0" stop-color="#1a3a6b"/>
      <stop offset="1" stop-color="#2d8b8b"/>
    </linearGradient>
  </defs>
  <rect width="900" height="700" fill="url(#g)"/>
  <circle cx="765" cy="140" r="244.99999999999997" fill="#ffffff" opacity="0.06"/>
  <circle cx="90" cy="595" r="210" fill="#ffffff" opacity="0.06"/>
  <g transform="translate(425, 302) scale(1)">
    <path d="M0 18 C0 6 10-2 19 4 c3 2 5 5 6 8 1-3 3-6 6-8 9-6 19 2 19 14 0 14-18 24-25 28 C18 42 0 32 0 18z" fill="#ffffff" opacity="0.9"/>
    <path d="M8 20 h10 l4-8 7 18 4-8 h11" stroke="#1a3a6b" stroke-width="3.4" fill="none" stroke-linecap="round" stroke-linejoin="round"/>
  </g>
  <text x="450" y="384" text-anchor="middle" font-family="Manrope, Arial, sans-serif" font-size="23.68421052631579" font-weight="700" fill="#ffffff">Our Team 3</text>
  <text x="450" y="412" text-anchor="middle" font-family="Inter, Arial, sans-serif" font-size="13" fill="#ffffff" opacity="0.85">Dhrishta Gallery</text>
</svg>