<svg xmlns="http://www.w3.org/2000/svg" viewBox="0 0 900 1125" role="img" aria-label="Our Team 1">
  <defs>
    <linearGradient id="field33" x1="0" y1="0" x2="0" y2="1">
      <stop offset="0" stop-color="#FDFDFB"/><stop offset="1" stop-color="#F2EEE5"/>
    </linearGradient>
    <radialGradient id="glow33" cx="0.24" cy="0.08" r="0.9">
      <stop offset="0" stop-color="#A7D3CE" stop-opacity="0.55"/>
      <stop offset="0.55" stop-color="#A7D3CE" stop-opacity="0"/>
    </radialGradient>
    <linearGradient id="shaft33" x1="0" y1="0" x2="0.35" y2="1">
      <stop offset="0" stop-color="#EAD9B0" stop-opacity="0.65"/>
      <stop offset="0.6" stop-color="#C29A55" stop-opacity="0.12"/>
      <stop offset="1" stop-color="#C29A55" stop-opacity="0"/>
    </linearGradient>
    <filter id="soft33" x="-40%" y="-40%" width="180%" height="180%">
      <feGaussianBlur stdDeviation="26"/>
    </filter>
    <filter id="grain33">
      <feTurbulence type="fractalNoise" baseFrequency="0.8" numOctaves="2" stitchTiles="stitch"/>
      <feColorMatrix type="saturate" values="0"/>
      <feComponentTransfer><feFuncA type="linear" slope="0.05"/></feComponentTransfer>
      <feComposite operator="over" in2="SourceGraphic"/>
    </filter>
  </defs>
  <rect width="900" height="1125" fill="url(#field33)"/>
  <rect width="900" height="1125" fill="url(#glow33)"/>
  <!-- light shaft entering from upper left -->
  <polygon points="108,-112.5 306,-112.5 558,1181.25 252.00000000000003,1181.25"
    fill="url(#shaft33)" filter="url(#soft33)"/>
  <!-- arch window with pooling light -->
  <g>
    <path d="M648 765 v-508.5 a76.5 76.5 0 0 1 153 0 v508.5 z"
      fill="rgba(234,217,176,0.35)" stroke="rgba(10,27,46,0.14)" stroke-width="2"/>
    <line x1="724.5" y1="195.3" x2="724.5" y2="765" stroke="rgba(10,27,46,0.14)" stroke-width="1.5"/>
    <ellipse cx="724.5" cy="832.5" rx="130.04999999999998" ry="50.625"
      fill="#EAD9B0" opacity="0.4" filter="url(#soft33)"/>
  </g>
  <!-- horizon hairline -->
  <line x1="54" y1="832.5" x2="846" y2="832.5" stroke="rgba(10,27,46,0.14)" stroke-width="1.5"/>
  <circle cx="72" cy="444" r="3.1" fill="#C29A55" opacity="0.29"/>
    <circle cx="241" cy="222" r="3.7" fill="#C29A55" opacity="0.38"/>
    <circle cx="311" cy="264" r="1.5" fill="#C29A55" opacity="0.51"/>
    <circle cx="477" cy="395" r="1.8" fill="#C29A55" opacity="0.28"/>
    <circle cx="157" cy="308" r="1.5" fill="#C29A55" opacity="0.50"/>
    <circle cx="312" cy="660" r="3.1" fill="#C29A55" opacity="0.21"/>
    <circle cx="315" cy="178" r="3.4" fill="#C29A55" opacity="0.37"/>
    <circle cx="284" cy="394" r="1.8" fill="#C29A55" opacity="0.18"/>
    <circle cx="82" cy="761" r="3.6" fill="#C29A55" opacity="0.49"/>
    <circle cx="329" cy="609" r="2.8" fill="#C29A55" opacity="0.32"/>
    <circle cx="241" cy="270" r="2.1" fill="#C29A55" opacity="0.44"/>
    <circle cx="236" cy="126" r="2.6" fill="#C29A55" opacity="0.24"/>
    <circle cx="276" cy="312" r="1.7" fill="#C29A55" opacity="0.21"/>
    <circle cx="516" cy="459" r="1.4" fill="#C29A55" opacity="0.58"/>
  <g transform="translate(808,36) scale(0.82)" opacity="0.75">
    <path d="M0 18 C0 6 10-2 19 4 c3 2 5 5 6 8 1-3 3-6 6-8 9-6 19 2 19 14 0 14-18 24-25 28 C18 42 0 32 0 18z" fill="none" stroke="#2E8B84" stroke-width="3"/>
    <path d="M8 22 h10 l4-8 7 18 4-8 h11" stroke="#2E8B84" stroke-width="3" fill="none" stroke-linecap="round" stroke-linejoin="round"/>
  </g>
  
  <rect width="900" height="1125" filter="url(#grain33)" opacity="0.35" fill="none"/>
</svg>