<svg xmlns="http://www.w3.org/2000/svg" viewBox="0 0 1200 800">
  <defs>
    <linearGradient id="g" x1="0" y1="0" x2="1" y2="1">
      <stop offset="0" stop-color="#2e7d32"/>
      <stop offset="1" stop-color="#43a047"/>
    </linearGradient>
  </defs>
  <rect width="1200" height="800" fill="url(#g)"/>
  <circle cx="1020" cy="160" r="280" fill="#ffffff" opacity="0.06"/>
  <circle cx="120" cy="680" r="240" fill="#ffffff" opacity="0.06"/>
  <g transform="translate(575, 352) scale(1)">
    <path d="M0 18 C0 6 10-2 19 4 c3 2 5 5 6 8 1-3 3-6 6-8 9-6 19 2 19 14 0 14-18 24-25 28 C18 42 0 32 0 18z" fill="#ffffff" opacity="0.9"/>
    <path d="M8 20 h10 l4-8 7 18 4-8 h11" stroke="#2e7d32" stroke-width="3.4" fill="none" stroke-linecap="round" stroke-linejoin="round"/>
  </g>
  <text x="600" y="434" text-anchor="middle" font-family="Manrope, Arial, sans-serif" font-size="31.57894736842105" font-weight="700" fill="#ffffff">Elder Care</text>
  <text x="600" y="462" text-anchor="middle" font-family="Inter, Arial, sans-serif" font-size="17.142857142857142" fill="#ffffff" opacity="0.85">Dhrishta Healthcare</text>
</svg>