<svg xmlns="http://www.w3.org/2000/svg" viewBox="0 0 1200 800" role="img" aria-label="A decade of mornings">
  <defs>
    <linearGradient id="field2" x1="0" y1="0" x2="0" y2="1">
      <stop offset="0" stop-color="#FDFDFB"/><stop offset="1" stop-color="#F2EEE5"/>
    </linearGradient>
    <radialGradient id="glow2" cx="0.24" cy="0.08" r="0.9">
      <stop offset="0" stop-color="#EAD9B0" stop-opacity="0.55"/>
      <stop offset="0.55" stop-color="#EAD9B0" stop-opacity="0"/>
    </radialGradient>
    <linearGradient id="shaft2" x1="0" y1="0" x2="0.35" y2="1">
      <stop offset="0" stop-color="#EAD9B0" stop-opacity="0.65"/>
      <stop offset="0.6" stop-color="#C29A55" stop-opacity="0.12"/>
      <stop offset="1" stop-color="#C29A55" stop-opacity="0"/>
    </linearGradient>
    <filter id="soft2" x="-40%" y="-40%" width="180%" height="180%">
      <feGaussianBlur stdDeviation="26"/>
    </filter>
    <filter id="grain2">
      <feTurbulence type="fractalNoise" baseFrequency="0.8" numOctaves="2" stitchTiles="stitch"/>
      <feColorMatrix type="saturate" values="0"/>
      <feComponentTransfer><feFuncA type="linear" slope="0.05"/></feComponentTransfer>
      <feComposite operator="over" in2="SourceGraphic"/>
    </filter>
  </defs>
  <rect width="1200" height="800" fill="url(#field2)"/>
  <rect width="1200" height="800" fill="url(#glow2)"/>
  <!-- light shaft entering from upper left -->
  <polygon points="144,-80 408.00000000000006,-80 744,840 336.00000000000006,840"
    fill="url(#shaft2)" filter="url(#soft2)"/>
  <!-- arch window with pooling light -->
  <g>
    <path d="M864 544 v-314 a102.00000000000001 102.00000000000001 0 0 1 204.00000000000003 0 v314 z"
      fill="rgba(234,217,176,0.35)" stroke="rgba(10,27,46,0.14)" stroke-width="2"/>
    <line x1="966" y1="148.4" x2="966" y2="544" stroke="rgba(10,27,46,0.14)" stroke-width="1.5"/>
    <ellipse cx="966" cy="592" rx="173.4" ry="36"
      fill="#EAD9B0" opacity="0.4" filter="url(#soft2)"/>
  </g>
  <!-- horizon hairline -->
  <line x1="72" y1="592" x2="1128" y2="592" stroke="rgba(10,27,46,0.14)" stroke-width="1.5"/>
  <circle cx="96" cy="279" r="2.0" fill="#C29A55" opacity="0.20"/>
    <circle cx="612" cy="260" r="2.5" fill="#C29A55" opacity="0.37"/>
    <circle cx="379" cy="199" r="1.8" fill="#C29A55" opacity="0.47"/>
    <circle cx="180" cy="247" r="2.7" fill="#C29A55" opacity="0.51"/>
    <circle cx="326" cy="105" r="1.8" fill="#C29A55" opacity="0.47"/>
    <circle cx="451" cy="330" r="2.4" fill="#C29A55" opacity="0.27"/>
    <circle cx="281" cy="446" r="1.2" fill="#C29A55" opacity="0.26"/>
    <circle cx="442" cy="406" r="1.2" fill="#C29A55" opacity="0.33"/>
    <circle cx="628" cy="315" r="1.5" fill="#C29A55" opacity="0.42"/>
    <circle cx="671" cy="218" r="3.5" fill="#C29A55" opacity="0.19"/>
    <circle cx="526" cy="452" r="3.7" fill="#C29A55" opacity="0.29"/>
    <circle cx="196" cy="448" r="3.7" fill="#C29A55" opacity="0.47"/>
    <circle cx="696" cy="448" r="2.3" fill="#C29A55" opacity="0.28"/>
    <circle cx="465" cy="76" r="3.7" fill="#C29A55" opacity="0.51"/>
  <g transform="translate(1108,36) scale(0.82)" opacity="0.75">
    <path d="M0 18 C0 6 10-2 19 4 c3 2 5 5 6 8 1-3 3-6 6-8 9-6 19 2 19 14 0 14-18 24-25 28 C18 42 0 32 0 18z" fill="none" stroke="#C29A55" stroke-width="3"/>
    <path d="M8 22 h10 l4-8 7 18 4-8 h11" stroke="#C29A55" stroke-width="3" fill="none" stroke-linecap="round" stroke-linejoin="round"/>
  </g>
  <g font-family="Manrope, Arial, sans-serif">
    <text x="72" y="626" font-size="13.333333333333334" font-weight="600" letter-spacing="4.5" fill="#C29A55">OUR STORY</text>
    <text x="72" y="672" font-size="46.15384615384615" font-weight="700" letter-spacing="-0.5" fill="#0A1B2E">A decade of mornings</text>
    <text x="72" y="712" font-family="Inter, Arial, sans-serif" font-size="17.647058823529413" fill="#405872">Care that comes home — Dhrishta Health Care Services</text>
  </g>
  <rect width="1200" height="800" filter="url(#grain2)" opacity="0.35" fill="none"/>
</svg>