<svg xmlns="http://www.w3.org/2000/svg" viewBox="0 0 1200 800" role="img" aria-label="Certified · Verified · 24/7">
  <defs>
    <linearGradient id="field3" x1="0" y1="0" x2="0" y2="1">
      <stop offset="0" stop-color="#FDFDFB"/><stop offset="1" stop-color="#F2EEE5"/>
    </linearGradient>
    <radialGradient id="glow3" cx="0.24" cy="0.08" r="0.9">
      <stop offset="0" stop-color="#A7D3CE" stop-opacity="0.55"/>
      <stop offset="0.55" stop-color="#A7D3CE" stop-opacity="0"/>
    </radialGradient>
    <linearGradient id="shaft3" x1="0" y1="0" x2="0.35" y2="1">
      <stop offset="0" stop-color="#EAD9B0" stop-opacity="0.65"/>
      <stop offset="0.6" stop-color="#C29A55" stop-opacity="0.12"/>
      <stop offset="1" stop-color="#C29A55" stop-opacity="0"/>
    </linearGradient>
    <filter id="soft3" x="-40%" y="-40%" width="180%" height="180%">
      <feGaussianBlur stdDeviation="26"/>
    </filter>
    <filter id="grain3">
      <feTurbulence type="fractalNoise" baseFrequency="0.8" numOctaves="2" stitchTiles="stitch"/>
      <feColorMatrix type="saturate" values="0"/>
      <feComponentTransfer><feFuncA type="linear" slope="0.05"/></feComponentTransfer>
      <feComposite operator="over" in2="SourceGraphic"/>
    </filter>
  </defs>
  <rect width="1200" height="800" fill="url(#field3)"/>
  <rect width="1200" height="800" fill="url(#glow3)"/>
  <!-- light shaft entering from upper left -->
  <polygon points="144,-80 408.00000000000006,-80 744,840 336.00000000000006,840"
    fill="url(#shaft3)" filter="url(#soft3)"/>
  <!-- arch window with pooling light -->
  <g>
    <path d="M864 544 v-314 a102.00000000000001 102.00000000000001 0 0 1 204.00000000000003 0 v314 z"
      fill="rgba(234,217,176,0.35)" stroke="rgba(10,27,46,0.14)" stroke-width="2"/>
    <line x1="966" y1="148.4" x2="966" y2="544" stroke="rgba(10,27,46,0.14)" stroke-width="1.5"/>
    <ellipse cx="966" cy="592" rx="173.4" ry="36"
      fill="#EAD9B0" opacity="0.4" filter="url(#soft3)"/>
  </g>
  <!-- horizon hairline -->
  <line x1="72" y1="592" x2="1128" y2="592" stroke="rgba(10,27,46,0.14)" stroke-width="1.5"/>
  <circle cx="96" cy="342" r="1.4" fill="#C29A55" opacity="0.38"/>
    <circle cx="332" cy="365" r="2.7" fill="#C29A55" opacity="0.24"/>
    <circle cx="187" cy="168" r="2.8" fill="#C29A55" opacity="0.27"/>
    <circle cx="679" cy="263" r="2.9" fill="#C29A55" opacity="0.32"/>
    <circle cx="128" cy="108" r="2.8" fill="#C29A55" opacity="0.50"/>
    <circle cx="102" cy="180" r="1.4" fill="#C29A55" opacity="0.25"/>
    <circle cx="188" cy="219" r="1.5" fill="#C29A55" opacity="0.52"/>
    <circle cx="691" cy="263" r="3.6" fill="#C29A55" opacity="0.24"/>
    <circle cx="186" cy="337" r="3.4" fill="#C29A55" opacity="0.56"/>
    <circle cx="451" cy="101" r="3.5" fill="#C29A55" opacity="0.33"/>
    <circle cx="675" cy="443" r="2.9" fill="#C29A55" opacity="0.20"/>
    <circle cx="587" cy="483" r="2.7" fill="#C29A55" opacity="0.43"/>
    <circle cx="260" cy="178" r="1.7" fill="#C29A55" opacity="0.47"/>
    <circle cx="608" cy="207" r="2.0" fill="#C29A55" opacity="0.58"/>
  <g transform="translate(1108,36) scale(0.82)" opacity="0.75">
    <path d="M0 18 C0 6 10-2 19 4 c3 2 5 5 6 8 1-3 3-6 6-8 9-6 19 2 19 14 0 14-18 24-25 28 C18 42 0 32 0 18z" fill="none" stroke="#2E8B84" stroke-width="3"/>
    <path d="M8 22 h10 l4-8 7 18 4-8 h11" stroke="#2E8B84" stroke-width="3" fill="none" stroke-linecap="round" stroke-linejoin="round"/>
  </g>
  <g font-family="Manrope, Arial, sans-serif">
    <text x="72" y="626" font-size="13.333333333333334" font-weight="600" letter-spacing="4.5" fill="#2E8B84">WHY FAMILIES TRUST US</text>
    <text x="72" y="672" font-size="46.15384615384615" font-weight="700" letter-spacing="-0.5" fill="#0A1B2E">Certified · Verified · 24/7</text>
    <text x="72" y="712" font-family="Inter, Arial, sans-serif" font-size="17.647058823529413" fill="#405872">Professional skill, genuine warmth</text>
  </g>
  <rect width="1200" height="800" filter="url(#grain3)" opacity="0.35" fill="none"/>
</svg>