<svg xmlns="http://www.w3.org/2000/svg" viewBox="0 0 900 1125" role="img" aria-label="Daily Activities 2">
  <defs>
    <linearGradient id="field25" x1="0" y1="0" x2="0" y2="1">
      <stop offset="0" stop-color="#FDFDFB"/><stop offset="1" stop-color="#F2EEE5"/>
    </linearGradient>
    <radialGradient id="glow25" cx="0.24" cy="0.08" r="0.9">
      <stop offset="0" stop-color="#EAD9B0" stop-opacity="0.55"/>
      <stop offset="0.55" stop-color="#EAD9B0" stop-opacity="0"/>
    </radialGradient>
    <linearGradient id="shaft25" x1="0" y1="0" x2="0.35" y2="1">
      <stop offset="0" stop-color="#EAD9B0" stop-opacity="0.65"/>
      <stop offset="0.6" stop-color="#C29A55" stop-opacity="0.12"/>
      <stop offset="1" stop-color="#C29A55" stop-opacity="0"/>
    </linearGradient>
    <filter id="soft25" x="-40%" y="-40%" width="180%" height="180%">
      <feGaussianBlur stdDeviation="26"/>
    </filter>
    <filter id="grain25">
      <feTurbulence type="fractalNoise" baseFrequency="0.8" numOctaves="2" stitchTiles="stitch"/>
      <feColorMatrix type="saturate" values="0"/>
      <feComponentTransfer><feFuncA type="linear" slope="0.05"/></feComponentTransfer>
      <feComposite operator="over" in2="SourceGraphic"/>
    </filter>
  </defs>
  <rect width="900" height="1125" fill="url(#field25)"/>
  <rect width="900" height="1125" fill="url(#glow25)"/>
  <!-- light shaft entering from upper left -->
  <polygon points="108,-112.5 306,-112.5 558,1181.25 252.00000000000003,1181.25"
    fill="url(#shaft25)" filter="url(#soft25)"/>
  <!-- arch window with pooling light -->
  <g>
    <path d="M648 765 v-508.5 a76.5 76.5 0 0 1 153 0 v508.5 z"
      fill="rgba(234,217,176,0.35)" stroke="rgba(10,27,46,0.14)" stroke-width="2"/>
    <line x1="724.5" y1="195.3" x2="724.5" y2="765" stroke="rgba(10,27,46,0.14)" stroke-width="1.5"/>
    <ellipse cx="724.5" cy="832.5" rx="130.04999999999998" ry="50.625"
      fill="#EAD9B0" opacity="0.4" filter="url(#soft25)"/>
  </g>
  <!-- horizon hairline -->
  <line x1="54" y1="832.5" x2="846" y2="832.5" stroke="rgba(10,27,46,0.14)" stroke-width="1.5"/>
  <circle cx="72" cy="409" r="3.0" fill="#C29A55" opacity="0.42"/>
    <circle cx="123" cy="390" r="2.8" fill="#C29A55" opacity="0.21"/>
    <circle cx="115" cy="616" r="1.3" fill="#C29A55" opacity="0.44"/>
    <circle cx="186" cy="208" r="3.3" fill="#C29A55" opacity="0.18"/>
    <circle cx="441" cy="267" r="1.3" fill="#C29A55" opacity="0.29"/>
    <circle cx="160" cy="326" r="1.3" fill="#C29A55" opacity="0.43"/>
    <circle cx="418" cy="708" r="1.5" fill="#C29A55" opacity="0.27"/>
    <circle cx="137" cy="657" r="3.7" fill="#C29A55" opacity="0.55"/>
    <circle cx="488" cy="504" r="1.3" fill="#C29A55" opacity="0.24"/>
    <circle cx="301" cy="575" r="3.0" fill="#C29A55" opacity="0.35"/>
    <circle cx="252" cy="365" r="2.7" fill="#C29A55" opacity="0.43"/>
    <circle cx="140" cy="408" r="2.4" fill="#C29A55" opacity="0.21"/>
    <circle cx="194" cy="656" r="1.4" fill="#C29A55" opacity="0.28"/>
    <circle cx="110" cy="324" r="1.8" fill="#C29A55" opacity="0.44"/>
  <g transform="translate(808,36) scale(0.82)" opacity="0.75">
    <path d="M0 18 C0 6 10-2 19 4 c3 2 5 5 6 8 1-3 3-6 6-8 9-6 19 2 19 14 0 14-18 24-25 28 C18 42 0 32 0 18z" fill="none" stroke="#C29A55" stroke-width="3"/>
    <path d="M8 22 h10 l4-8 7 18 4-8 h11" stroke="#C29A55" stroke-width="3" fill="none" stroke-linecap="round" stroke-linejoin="round"/>
  </g>
  
  <rect width="900" height="1125" filter="url(#grain25)" opacity="0.35" fill="none"/>
</svg>