<svg xmlns="http://www.w3.org/2000/svg" viewBox="0 0 900 1125" role="img" aria-label="Facilities 1">
  <defs>
    <linearGradient id="field21" x1="0" y1="0" x2="0" y2="1">
      <stop offset="0" stop-color="#FDFDFB"/><stop offset="1" stop-color="#F2EEE5"/>
    </linearGradient>
    <radialGradient id="glow21" cx="0.24" cy="0.08" r="0.9">
      <stop offset="0" stop-color="#E4E4DE" stop-opacity="0.55"/>
      <stop offset="0.55" stop-color="#E4E4DE" stop-opacity="0"/>
    </radialGradient>
    <linearGradient id="shaft21" x1="0" y1="0" x2="0.35" y2="1">
      <stop offset="0" stop-color="#EAD9B0" stop-opacity="0.65"/>
      <stop offset="0.6" stop-color="#C29A55" stop-opacity="0.12"/>
      <stop offset="1" stop-color="#C29A55" stop-opacity="0"/>
    </linearGradient>
    <filter id="soft21" x="-40%" y="-40%" width="180%" height="180%">
      <feGaussianBlur stdDeviation="26"/>
    </filter>
    <filter id="grain21">
      <feTurbulence type="fractalNoise" baseFrequency="0.8" numOctaves="2" stitchTiles="stitch"/>
      <feColorMatrix type="saturate" values="0"/>
      <feComponentTransfer><feFuncA type="linear" slope="0.05"/></feComponentTransfer>
      <feComposite operator="over" in2="SourceGraphic"/>
    </filter>
  </defs>
  <rect width="900" height="1125" fill="url(#field21)"/>
  <rect width="900" height="1125" fill="url(#glow21)"/>
  <!-- light shaft entering from upper left -->
  <polygon points="108,-112.5 306,-112.5 558,1181.25 252.00000000000003,1181.25"
    fill="url(#shaft21)" filter="url(#soft21)"/>
  <!-- arch window with pooling light -->
  <g>
    <path d="M648 765 v-508.5 a76.5 76.5 0 0 1 153 0 v508.5 z"
      fill="rgba(234,217,176,0.35)" stroke="rgba(10,27,46,0.14)" stroke-width="2"/>
    <line x1="724.5" y1="195.3" x2="724.5" y2="765" stroke="rgba(10,27,46,0.14)" stroke-width="1.5"/>
    <ellipse cx="724.5" cy="832.5" rx="130.04999999999998" ry="50.625"
      fill="#EAD9B0" opacity="0.4" filter="url(#soft21)"/>
  </g>
  <!-- horizon hairline -->
  <line x1="54" y1="832.5" x2="846" y2="832.5" stroke="rgba(10,27,46,0.14)" stroke-width="1.5"/>
  <circle cx="72" cy="729" r="2.9" fill="#C29A55" opacity="0.48"/>
    <circle cx="514" cy="474" r="2.3" fill="#C29A55" opacity="0.33"/>
    <circle cx="243" cy="118" r="2.5" fill="#C29A55" opacity="0.41"/>
    <circle cx="490" cy="115" r="2.8" fill="#C29A55" opacity="0.54"/>
    <circle cx="133" cy="246" r="2.5" fill="#C29A55" opacity="0.18"/>
    <circle cx="308" cy="497" r="2.9" fill="#C29A55" opacity="0.55"/>
    <circle cx="245" cy="635" r="3.2" fill="#C29A55" opacity="0.43"/>
    <circle cx="288" cy="114" r="2.0" fill="#C29A55" opacity="0.53"/>
    <circle cx="465" cy="376" r="1.4" fill="#C29A55" opacity="0.52"/>
    <circle cx="513" cy="557" r="3.1" fill="#C29A55" opacity="0.56"/>
    <circle cx="257" cy="412" r="3.0" fill="#C29A55" opacity="0.42"/>
    <circle cx="318" cy="212" r="3.7" fill="#C29A55" opacity="0.40"/>
    <circle cx="154" cy="152" r="3.8" fill="#C29A55" opacity="0.31"/>
    <circle cx="132" cy="257" r="3.2" fill="#C29A55" opacity="0.58"/>
  <g transform="translate(808,36) scale(0.82)" opacity="0.75">
    <path d="M0 18 C0 6 10-2 19 4 c3 2 5 5 6 8 1-3 3-6 6-8 9-6 19 2 19 14 0 14-18 24-25 28 C18 42 0 32 0 18z" fill="none" stroke="#405872" stroke-width="3"/>
    <path d="M8 22 h10 l4-8 7 18 4-8 h11" stroke="#405872" stroke-width="3" fill="none" stroke-linecap="round" stroke-linejoin="round"/>
  </g>
  
  <rect width="900" height="1125" filter="url(#grain21)" opacity="0.35" fill="none"/>
</svg>