<svg xmlns="http://www.w3.org/2000/svg" viewBox="0 0 1440 840" role="img" aria-label="Help knocks gently">
  <defs>
    <linearGradient id="field7" x1="0" y1="0" x2="0" y2="1">
      <stop offset="0" stop-color="#FDFDFB"/><stop offset="1" stop-color="#F2EEE5"/>
    </linearGradient>
    <radialGradient id="glow7" cx="0.24" cy="0.08" r="0.9">
      <stop offset="0" stop-color="#A7D3CE" stop-opacity="0.55"/>
      <stop offset="0.55" stop-color="#A7D3CE" stop-opacity="0"/>
    </radialGradient>
    <linearGradient id="shaft7" x1="0" y1="0" x2="0.35" y2="1">
      <stop offset="0" stop-color="#EAD9B0" stop-opacity="0.65"/>
      <stop offset="0.6" stop-color="#C29A55" stop-opacity="0.12"/>
      <stop offset="1" stop-color="#C29A55" stop-opacity="0"/>
    </linearGradient>
    <filter id="soft7" x="-40%" y="-40%" width="180%" height="180%">
      <feGaussianBlur stdDeviation="26"/>
    </filter>
    <filter id="grain7">
      <feTurbulence type="fractalNoise" baseFrequency="0.8" numOctaves="2" stitchTiles="stitch"/>
      <feColorMatrix type="saturate" values="0"/>
      <feComponentTransfer><feFuncA type="linear" slope="0.05"/></feComponentTransfer>
      <feComposite operator="over" in2="SourceGraphic"/>
    </filter>
  </defs>
  <rect width="1440" height="840" fill="url(#field7)"/>
  <rect width="1440" height="840" fill="url(#glow7)"/>
  <!-- light shaft entering from upper left -->
  <polygon points="172.79999999999998,-84 489.6,-84 892.8,882 403.20000000000005,882"
    fill="url(#shaft7)" filter="url(#soft7)"/>
  <!-- arch window with pooling light -->
  <g>
    <path d="M1036.8 571.2 v-314.4 a122.4 122.4 0 0 1 244.8 0 v314.4 z"
      fill="rgba(234,217,176,0.35)" stroke="rgba(10,27,46,0.14)" stroke-width="2"/>
    <line x1="1159.2" y1="158.88" x2="1159.2" y2="571.2" stroke="rgba(10,27,46,0.14)" stroke-width="1.5"/>
    <ellipse cx="1159.2" cy="621.6" rx="208.08" ry="37.8"
      fill="#EAD9B0" opacity="0.4" filter="url(#soft7)"/>
  </g>
  <!-- horizon hairline -->
  <line x1="86.39999999999999" y1="621.6" x2="1353.6" y2="621.6" stroke="rgba(10,27,46,0.14)" stroke-width="1.5"/>
  <circle cx="115" cy="120" r="1.4" fill="#C29A55" opacity="0.32"/>
    <circle cx="493" cy="321" r="3.2" fill="#C29A55" opacity="0.52"/>
    <circle cx="741" cy="549" r="1.6" fill="#C29A55" opacity="0.30"/>
    <circle cx="328" cy="346" r="3.4" fill="#C29A55" opacity="0.37"/>
    <circle cx="647" cy="129" r="1.6" fill="#C29A55" opacity="0.21"/>
    <circle cx="605" cy="565" r="2.3" fill="#C29A55" opacity="0.53"/>
    <circle cx="503" cy="284" r="2.4" fill="#C29A55" opacity="0.37"/>
    <circle cx="588" cy="178" r="2.7" fill="#C29A55" opacity="0.26"/>
    <circle cx="259" cy="450" r="3.2" fill="#C29A55" opacity="0.28"/>
    <circle cx="203" cy="119" r="3.4" fill="#C29A55" opacity="0.52"/>
    <circle cx="801" cy="430" r="2.7" fill="#C29A55" opacity="0.20"/>
    <circle cx="421" cy="149" r="1.5" fill="#C29A55" opacity="0.24"/>
    <circle cx="377" cy="562" r="1.9" fill="#C29A55" opacity="0.44"/>
    <circle cx="694" cy="268" r="3.1" fill="#C29A55" opacity="0.45"/>
  <g transform="translate(1348,36) scale(0.82)" opacity="0.75">
    <path d="M0 18 C0 6 10-2 19 4 c3 2 5 5 6 8 1-3 3-6 6-8 9-6 19 2 19 14 0 14-18 24-25 28 C18 42 0 32 0 18z" fill="none" stroke="#2E8B84" stroke-width="3"/>
    <path d="M8 22 h10 l4-8 7 18 4-8 h11" stroke="#2E8B84" stroke-width="3" fill="none" stroke-linecap="round" stroke-linejoin="round"/>
  </g>
  
  <rect width="1440" height="840" filter="url(#grain7)" opacity="0.35" fill="none"/>
</svg>